<?xml version="1.0" encoding="utf-8"?>
<!-- Generator: Adobe Illustrator 21.0.0, SVG Export Plug-In . SVG Version: 6.00 Build 0)  -->
<svg version="1.1" id="Layer_1" xmlns="http://www.w3.org/2000/svg" xmlns:xlink="http://www.w3.org/1999/xlink" x="0px" y="0px"
	 viewBox="0 0 120 120" style="enable-background:new 0 0 120 120;" xml:space="preserve">
<style type="text/css">
	.st0{display:none;fill:#FFFFFF;}
	.st1{fill:#24316C;}
	.st2{opacity:0.3;fill:url(#SVGID_1_);}
	.st3{fill:#F3DD09;}
	.st4{fill:url(#SVGID_2_);}
	.st5{opacity:0.5;fill:url(#SVGID_3_);}
	.st6{opacity:0.5;fill:url(#SVGID_4_);}
</style>
<rect class="st0" width="120" height="120"/>
<circle class="st1" cx="60" cy="60" r="56.6"/>
<linearGradient id="SVGID_1_" gradientUnits="userSpaceOnUse" x1="14.7738" y1="36.3467" x2="107.1982" y2="36.3467">
	<stop  offset="0" style="stop-color:#2484C7"/>
	<stop  offset="1" style="stop-color:#2484C7;stop-opacity:0"/>
</linearGradient>
<ellipse class="st2" cx="61" cy="36.3" rx="46.2" ry="32.6"/>
<path class="st3" d="M79.1,53.5c-2-1.7-4.5-2.9-7.2-3.5c-0.6-0.2-1.2-0.3-1.8-0.5v0.2c-0.3,0-0.6-0.1-0.9-0.1
	c5.4-0.7,10.5-4.8,10.6-12.7c0-10.5-9.3-14.7-21.8-14.7l-24.8,0l0,0.9h1.1c3,0,5.4,2.4,5.5,5.3v22.2c3-0.9,6.3-1.4,9.6-1.4
	c1.1,0,2.2,0.1,3.3,0.2V25.9h2.5c6.6,0,11,3.5,11,12.1c0,8.6-5.1,11.7-10.4,11.8c8.5,1.6,17.3,5.4,20.7,13.4
	c1.2,2.7,1.6,6.2,1.6,9.8c0,2.5-0.2,4.8-0.6,6.9c-0.8,8.8-8.2,15.8-17.2,15.8c-5.2,0-9.9-2.3-13.1-6c0,0,0,0,0,0
	c-0.1-0.1-0.2-0.3-0.4-0.4c-0.1-0.1-0.2-0.2-0.3-0.4c-0.1-0.1-0.1-0.1-0.2-0.2c-0.1-0.1-0.2-0.3-0.3-0.4c-0.1-0.1-0.2-0.2-0.2-0.4
	c0-0.1-0.1-0.1-0.1-0.2c-1.1-1.7-1.9-3.7-2.3-5.8c-0.4-1.8-0.6-3.9-0.6-6c0-11.8,6.3-19.1,16.6-19.1c0.7,0,1.4,0,2.1,0.1
	c0.5,0.8,0.7,1.8,0.7,2.8v1.1l0.8,0l0-6.4h-0.3c-1.3-0.1-2.6-0.2-4-0.2C42,54,32,62.4,32,75.8c0,13.7,10.4,21.9,26.3,21.9
	c1.6,0,3,0.2,4.4,0H63c15.4-0.2,25.1-9.6,25.1-24.7C88.1,64.4,84.9,57.7,79.1,53.5z"/>
<linearGradient id="SVGID_2_" gradientUnits="userSpaceOnUse" x1="85.3488" y1="86.9942" x2="26.8675" y2="28.5129">
	<stop  offset="0" style="stop-color:#B9752A"/>
	<stop  offset="0.6667" style="stop-color:#F9D877"/>
	<stop  offset="0.7238" style="stop-color:#F0CA6C"/>
	<stop  offset="0.8291" style="stop-color:#DBAA50"/>
	<stop  offset="0.97" style="stop-color:#BF7E2E"/>
	<stop  offset="1" style="stop-color:#B9752A"/>
</linearGradient>
<path class="st4" d="M79.4,53.3c-2-1.7-4.5-2.9-7.2-3.5c-0.6-0.2-1.2-0.3-1.8-0.5v0.2c-0.3,0-0.6-0.1-0.9-0.1
	c5.4-0.7,10.5-4.8,10.6-12.7c0-10.5-9.3-14.7-21.8-14.7l-24.8,0l0,0.9h1.1c3,0,5.4,2.4,5.5,5.3v22.2c3-0.9,6.3-1.4,9.6-1.4
	c1.1,0,2.2,0.1,3.3,0.2V25.7h2.5c6.6,0,11,3.5,11,12.1c0,8.6-5.1,11.7-10.4,11.8c8.5,1.6,17.3,5.4,20.7,13.4
	c1.2,2.7,1.6,6.2,1.6,9.8c0,2.5-0.2,4.8-0.6,6.9c-0.8,8.8-8.2,15.8-17.2,15.8c-5.2,0-9.9-2.3-13.1-6c0,0,0,0,0,0
	c-0.1-0.1-0.2-0.3-0.4-0.4c-0.1-0.1-0.2-0.2-0.3-0.4c-0.1-0.1-0.1-0.1-0.2-0.2c-0.1-0.1-0.2-0.3-0.3-0.4c-0.1-0.1-0.2-0.2-0.2-0.4
	c0-0.1-0.1-0.1-0.1-0.2c-1.1-1.7-1.9-3.7-2.3-5.8c-0.4-1.8-0.6-3.9-0.6-6c0-11.8,6.3-19.1,16.6-19.1c0.7,0,1.4,0,2.1,0.1
	c0.5,0.8,0.7,1.8,0.7,2.8v1.1l0.8,0l0-6.4h-0.3c-1.3-0.1-2.6-0.2-4-0.2c-16.5,0-26.5,8.4-26.5,21.8c0,13.7,10.4,21.9,26.3,21.9
	c1.6,0,3,0.2,4.4,0h0.4c15.4-0.2,25.1-9.6,25.1-24.7C88.4,64.2,85.2,57.5,79.4,53.3z"/>
<linearGradient id="SVGID_3_" gradientUnits="userSpaceOnUse" x1="59.737" y1="22.5827" x2="59.737" y2="98.1837">
	<stop  offset="0" style="stop-color:#F8ED33"/>
	<stop  offset="0.1576" style="stop-color:#3C2517;stop-opacity:0"/>
</linearGradient>
<path class="st5" d="M78.8,53.9c-2-1.7-4.5-2.9-7.2-3.5c-0.6-0.2-1.2-0.3-1.8-0.5v0.2c-0.3,0-0.6-0.1-0.9-0.1
	c5.4-0.7,10.5-4.8,10.6-12.7c0-10.5-9.3-14.7-21.8-14.7l-24.8,0l0,0.9h1.1c3,0,5.4,2.4,5.5,5.3v22.2c3-0.9,6.3-1.4,9.6-1.4
	c1.1,0,2.2,0.1,3.3,0.2V26.3h2.5c6.6,0,11,3.5,11,12.1c0,8.6-5.1,11.7-10.4,11.8c8.5,1.6,17.3,5.4,20.7,13.4
	c1.2,2.7,1.6,6.2,1.6,9.8c0,2.5-0.2,4.8-0.6,6.9c-0.8,8.8-8.2,15.8-17.2,15.8c-5.2,0-9.9-2.3-13.1-6c0,0,0,0,0,0
	c-0.1-0.1-0.2-0.3-0.4-0.4c-0.1-0.1-0.2-0.2-0.3-0.4c-0.1-0.1-0.1-0.1-0.2-0.2c-0.1-0.1-0.2-0.3-0.3-0.4c-0.1-0.1-0.2-0.2-0.2-0.4
	c0-0.1-0.1-0.1-0.1-0.2c-1.1-1.7-1.9-3.7-2.3-5.8c-0.4-1.8-0.6-3.9-0.6-6c0-11.8,6.3-19.1,16.6-19.1c0.7,0,1.4,0,2.1,0.1
	c0.5,0.8,0.7,1.8,0.7,2.8v1.1l0.8,0l0-6.4h-0.3c-1.3-0.1-2.6-0.2-4-0.2c-16.5,0-26.5,8.4-26.5,21.8C31.7,89.9,42,98,58,98.1
	c1.6,0,3,0.2,4.4,0h0.4c15.4-0.2,25.1-9.6,25.1-24.7C87.8,64.8,84.6,58.1,78.8,53.9z"/>
<linearGradient id="SVGID_4_" gradientUnits="userSpaceOnUse" x1="60.3123" y1="22.5827" x2="60.3123" y2="98.1837">
	<stop  offset="4.926110e-03" style="stop-color:#3C2517;stop-opacity:0"/>
	<stop  offset="0.3793" style="stop-color:#3C2517;stop-opacity:0.3793"/>
	<stop  offset="0.5764" style="stop-color:#F8ED33"/>
	<stop  offset="0.734" style="stop-color:#D7DF28;stop-opacity:0.266"/>
	<stop  offset="0.9754" style="stop-color:#3C2517;stop-opacity:0"/>
</linearGradient>
<path class="st6" d="M79.4,53.9c-2-1.7-4.5-2.9-7.2-3.5c-0.6-0.2-1.2-0.3-1.8-0.5v0.2c-0.3,0-0.6-0.1-0.9-0.1
	c5.4-0.7,10.5-4.8,10.6-12.7c0-10.5-9.3-14.7-21.8-14.7l-24.8,0l0,0.9h1.1c3,0,5.4,2.4,5.5,5.3v22.2c3-0.9,6.3-1.4,9.6-1.4
	c1.1,0,2.2,0.1,3.3,0.2V26.3h2.5c6.6,0,11,3.5,11,12.1c0,8.6-5.1,11.7-10.4,11.8c8.5,1.6,17.3,5.4,20.7,13.4
	c1.2,2.7,1.6,6.2,1.6,9.8c0,2.5-0.2,4.8-0.6,6.9c-0.8,8.8-8.2,15.8-17.2,15.8c-5.2,0-9.9-2.3-13.1-6c0,0,0,0,0,0
	c-0.1-0.1-0.2-0.3-0.4-0.4c-0.1-0.1-0.2-0.2-0.3-0.4c-0.1-0.1-0.1-0.1-0.2-0.2c-0.1-0.1-0.2-0.3-0.3-0.4c-0.1-0.1-0.2-0.2-0.2-0.4
	c0-0.1-0.1-0.1-0.1-0.2c-1.1-1.7-1.9-3.7-2.3-5.8c-0.4-1.8-0.6-3.9-0.6-6c0-11.8,6.3-19.1,16.6-19.1c0.7,0,1.4,0,2.1,0.1
	c0.5,0.8,0.7,1.8,0.7,2.8v1.1l0.8,0l0-6.4h-0.3c-1.3-0.1-2.6-0.2-4-0.2c-16.5,0-26.5,8.4-26.5,21.8c0,13.7,10.4,21.9,26.3,21.9
	c1.6,0,3,0.2,4.4,0h0.4c15.4-0.2,25.1-9.6,25.1-24.7C88.4,64.8,85.2,58.1,79.4,53.9z"/>
</svg>
